# Blender v2.78 (sub 0) OBJ File: ''
# www.blender.org
o Cylinder
v 0.751640 0.339895 0.328524
v 0.550239 0.688732 0.328523
v 0.201401 0.890134 0.328523
v -0.201402 0.890134 0.328523
v -0.550239 0.688732 0.328523
v -0.751640 0.339895 0.328523
v 0.201402 -0.613147 0.328524
v -0.201401 -0.613147 0.328524
v -0.751640 -0.062908 0.328523
v 0.550239 -0.411745 0.328524
v -0.550239 -0.411745 0.328523
v 0.751640 -0.062908 0.328524
v 0.952078 0.393602 0.119527
v 0.696969 0.835463 0.119527
v 0.255108 1.090571 0.119527
v -0.255109 1.090571 0.119527
v -0.696969 0.835463 0.119527
v -0.952078 0.393602 0.119527
v 0.255109 -0.813584 0.119527
v -0.255109 -0.813584 0.119527
v -0.952078 -0.116615 0.119527
v 0.696970 -0.558475 0.119527
v -0.696969 -0.558476 0.119527
v 0.952078 -0.116615 0.119527
v -0.161121 -0.462819 0.412520
v -0.440191 -0.301698 0.412520
v -0.601312 -0.022628 0.412520
v -0.601312 0.299615 0.412520
v -0.440191 0.578685 0.412520
v -0.161121 0.739806 0.412520
v 0.161121 0.739806 0.412520
v 0.440191 0.578685 0.412520
v 0.601312 0.299615 0.412520
v 0.601312 -0.022627 0.412520
v 0.440191 -0.301697 0.412520
v 0.161121 -0.462819 0.412520
v 0.876914 0.373462 0.234276
v 0.641945 0.780439 0.234276
v 0.234968 1.015407 0.234276
v -0.234968 1.015407 0.234276
v -0.641945 0.780439 0.234276
v -0.876914 0.373462 0.234276
v 0.234968 -0.738420 0.234276
v -0.234968 -0.738420 0.234276
v -0.876914 -0.096475 0.234276
v 0.641946 -0.503452 0.234276
v -0.641945 -0.503452 0.234276
v 0.876914 -0.096474 0.234276
v 0.854123 -0.354634 0.119527
v -0.854123 -0.354634 0.119527
v -0.389311 -0.535814 0.328524
v 0.000000 -0.640130 0.328524
v 0.493128 -0.715629 0.119527
v -0.986256 0.138493 0.119527
v -0.854123 0.631621 0.119527
v -0.493128 0.992616 0.119527
v -0.000000 1.124749 0.119527
v 0.493128 0.992616 0.119527
v 0.778623 0.138494 0.328524
v 0.854122 0.631621 0.119527
v -0.268535 -0.863694 -0.005473
v -0.733652 -0.595158 -0.005473
v -1.002187 -0.130042 -0.005473
v -1.002187 0.407029 -0.005473
v -0.733652 0.872145 -0.005473
v -0.268535 1.140680 -0.005473
v 0.268535 1.140680 -0.005473
v 0.733652 0.872145 -0.005473
v 1.002187 0.407029 -0.005473
v 1.002187 -0.130041 -0.005473
v 0.733652 -0.595158 -0.005473
v 0.268535 -0.863693 -0.005473
v 0.674307 0.527805 0.328524
v 0.986256 0.138494 0.119527
v 0.389311 0.812801 0.328523
v -0.000000 0.917116 0.328523
v -0.389312 0.812801 0.328523
v -0.674307 0.527805 0.328523
v -0.778623 0.138493 0.328523
v 0.389312 -0.535814 0.328524
v 0.000000 -0.847762 0.119527
v -0.493128 -0.715629 0.119527
v -0.674307 -0.250818 0.328523
v 0.674307 -0.250818 0.328524
v 0.000000 -0.484405 0.412520
v -0.311449 -0.400952 0.412520
v -0.539446 -0.172956 0.412520
v -0.622898 0.138493 0.412520
v -0.539446 0.449943 0.412520
v -0.311449 0.677939 0.412520
v -0.000000 0.761392 0.412520
v 0.311449 0.677939 0.412520
v 0.539446 0.449943 0.412520
v 0.622898 0.138494 0.412520
v 0.539446 -0.172955 0.412520
v 0.311449 -0.400952 0.412520
v 0.786692 -0.315703 0.234276
v -0.786692 -0.315703 0.234276
v -0.454197 -0.648198 0.234276
v 0.000000 -0.769900 0.234276
v 0.454197 -0.648198 0.234276
v -0.908393 0.138493 0.234276
v -0.786692 0.592690 0.234276
v -0.454197 0.925185 0.234276
v -0.000000 1.046887 0.234276
v 0.454197 0.925185 0.234276
v 0.908393 0.138494 0.234276
v 0.786692 0.592690 0.234276
v 0.000000 -0.899670 -0.005473
v -0.519082 -0.760583 -0.005473
v -0.899076 -0.380589 -0.005473
v -1.038164 0.138493 -0.005473
v -0.899076 0.657575 -0.005473
v -0.519082 1.037570 -0.005473
v -0.000000 1.176657 -0.005473
v 0.519082 1.037570 -0.005473
v 0.899076 0.657576 -0.005473
v 1.038164 0.138494 -0.005473
v 0.899077 -0.380588 -0.005473
v 0.519082 -0.760583 -0.005473
vt 0.2917 0.7500
vt 0.3333 0.7500
vt 0.3333 1.0000
vt 0.2917 1.0000
vt 0.2500 1.0000
vt 0.2500 0.7500
vt 0.2500 0.5000
vt 0.2917 0.5000
vt 0.3333 0.5000
vt 0.3750 0.7500
vt 0.4167 0.7500
vt 0.4167 1.0000
vt 0.3750 1.0000
vt 0.3750 0.5000
vt 0.4167 0.5000
vt 0.4583 0.7500
vt 0.5000 0.7500
vt 0.5000 1.0000
vt 0.4583 1.0000
vt 0.4583 0.5000
vt 0.5000 0.5000
vt 0.5417 0.7500
vt 0.5833 0.7500
vt 0.5833 1.0000
vt 0.5417 1.0000
vt 0.5417 0.5000
vt 0.5833 0.5000
vt 0.6250 0.7500
vt 0.6667 0.7500
vt 0.6667 1.0000
vt 0.6250 1.0000
vt 0.6250 0.5000
vt 0.6667 0.5000
vt 0.7083 0.7500
vt 0.7500 0.7500
vt 0.7500 1.0000
vt 0.7083 1.0000
vt 0.7083 0.5000
vt 0.7500 0.5000
vt 0.0417 0.7500
vt 0.0834 0.7500
vt 0.0834 1.0000
vt 0.0417 1.0000
vt 0.0000 1.0000
vt 0.0000 0.7500
vt 0.0000 0.5000
vt 0.0417 0.5000
vt 0.0834 0.5000
vt 0.9583 0.7500
vt 1.0000 0.7500
vt 1.0000 1.0000
vt 0.9583 1.0000
vt 0.9166 1.0000
vt 0.9166 0.7500
vt 0.9166 0.5000
vt 0.9583 0.5000
vt 1.0000 0.5000
vt 0.7917 0.7500
vt 0.8333 0.7500
vt 0.8333 1.0000
vt 0.7917 1.0000
vt 0.7917 0.5000
vt 0.8333 0.5000
vt 0.1250 0.7500
vt 0.1667 0.7500
vt 0.1667 1.0000
vt 0.1250 1.0000
vt 0.1250 0.5000
vt 0.1667 0.5000
vt 0.8750 0.7500
vt 0.8750 1.0000
vt 0.8750 0.5000
vt 0.2083 0.7500
vt 0.2083 1.0000
vt 0.2083 0.5000
vt 0.2917 0.2500
vt 0.3333 0.2500
vt 0.2500 0.2500
vt 0.2500 0.0000
vt 0.2917 0.0000
vt 0.3333 0.0000
vt 0.3750 0.2500
vt 0.4167 0.2500
vt 0.3750 0.0000
vt 0.4167 0.0000
vt 0.4583 0.2500
vt 0.5000 0.2500
vt 0.4583 0.0000
vt 0.5000 0.0000
vt 0.5417 0.2500
vt 0.5833 0.2500
vt 0.5417 0.0000
vt 0.5833 0.0000
vt 0.6250 0.2500
vt 0.6667 0.2500
vt 0.6250 0.0000
vt 0.6667 0.0000
vt 0.7083 0.2500
vt 0.7500 0.2500
vt 0.7083 0.0000
vt 0.7500 0.0000
vt 0.0417 0.2500
vt 0.0834 0.2500
vt 0.0000 0.2500
vt 0.0000 0.0000
vt 0.0417 0.0000
vt 0.0834 0.0000
vt 0.9583 0.2500
vt 1.0000 0.2500
vt 0.9166 0.2500
vt 0.9166 0.0000
vt 0.9583 0.0000
vt 1.0000 0.0000
vt 0.7917 0.2500
vt 0.8333 0.2500
vt 0.7917 0.0000
vt 0.8333 0.0000
vt 0.1250 0.2500
vt 0.1667 0.2500
vt 0.1250 0.0000
vt 0.1667 0.0000
vt 0.8750 0.2500
vt 0.8750 0.0000
vt 0.2083 0.2500
vt 0.2083 0.0000
vn 0.5182 0.1388 0.8439
vn 0.4645 0.2682 0.8440
vn 0.4111 0.2373 0.8801
vn 0.4588 0.1229 0.8800
vn 0.4747 0.0000 0.8801
vn 0.5364 0.0000 0.8440
vn 0.7252 0.0000 0.6885
vn 0.7005 0.1877 0.6885
vn 0.6280 0.3626 0.6885
vn 0.3793 0.3793 0.8439
vn 0.2682 0.4645 0.8440
vn 0.2373 0.4111 0.8801
vn 0.3358 0.3358 0.8800
vn 0.5128 0.5128 0.6885
vn 0.3626 0.6280 0.6885
vn 0.1388 0.5182 0.8439
vn 0.0000 0.5364 0.8440
vn 0.0000 0.4747 0.8801
vn 0.1229 0.4588 0.8800
vn 0.1877 0.7005 0.6885
vn 0.0000 0.7252 0.6885
vn -0.1388 0.5182 0.8439
vn -0.2682 0.4645 0.8440
vn -0.2373 0.4111 0.8801
vn -0.1229 0.4588 0.8800
vn -0.1877 0.7005 0.6885
vn -0.3626 0.6280 0.6885
vn -0.3793 0.3793 0.8439
vn -0.4645 0.2682 0.8440
vn -0.4111 0.2373 0.8801
vn -0.3358 0.3358 0.8800
vn -0.5128 0.5128 0.6885
vn -0.6280 0.3626 0.6885
vn -0.5182 0.1388 0.8439
vn -0.5364 0.0000 0.8440
vn -0.4747 0.0000 0.8801
vn -0.4588 0.1229 0.8800
vn -0.7005 0.1877 0.6885
vn -0.7252 0.0000 0.6885
vn 0.1388 -0.5182 0.8439
vn 0.2682 -0.4645 0.8440
vn 0.2373 -0.4111 0.8801
vn 0.1229 -0.4588 0.8800
vn 0.0000 -0.4747 0.8801
vn 0.0000 -0.5364 0.8440
vn 0.0000 -0.7252 0.6885
vn 0.1877 -0.7005 0.6885
vn 0.3626 -0.6280 0.6885
vn -0.1388 -0.5182 0.8439
vn -0.1229 -0.4588 0.8800
vn -0.2373 -0.4111 0.8801
vn -0.2682 -0.4645 0.8440
vn -0.3626 -0.6280 0.6885
vn -0.1877 -0.7005 0.6885
vn -0.5182 -0.1388 0.8439
vn -0.4645 -0.2682 0.8440
vn -0.4111 -0.2373 0.8801
vn -0.4588 -0.1229 0.8800
vn -0.7005 -0.1877 0.6885
vn -0.6280 -0.3626 0.6885
vn 0.3793 -0.3793 0.8439
vn 0.4645 -0.2682 0.8440
vn 0.4111 -0.2373 0.8801
vn 0.3358 -0.3358 0.8800
vn 0.5128 -0.5128 0.6885
vn 0.6280 -0.3626 0.6885
vn -0.3793 -0.3793 0.8439
vn -0.3358 -0.3358 0.8800
vn -0.5128 -0.5128 0.6885
vn 0.5182 -0.1388 0.8439
vn 0.4588 -0.1229 0.8800
vn 0.7005 -0.1877 0.6885
vn 0.8519 0.2282 0.4713
vn 0.7638 0.4409 0.4714
vn 0.8819 0.0000 0.4714
vn 0.9235 0.0000 0.3835
vn 0.8921 0.2390 0.3833
vn 0.7998 0.4617 0.3835
vn 0.6236 0.6236 0.4713
vn 0.4409 0.7638 0.4714
vn 0.6531 0.6531 0.3833
vn 0.4617 0.7998 0.3835
vn 0.2282 0.8519 0.4713
vn 0.0000 0.8819 0.4714
vn 0.2390 0.8921 0.3833
vn 0.0000 0.9235 0.3835
vn -0.2282 0.8519 0.4713
vn -0.4409 0.7638 0.4714
vn -0.2390 0.8921 0.3833
vn -0.4617 0.7998 0.3835
vn -0.6236 0.6236 0.4713
vn -0.7638 0.4409 0.4714
vn -0.6531 0.6531 0.3833
vn -0.7998 0.4617 0.3835
vn -0.8519 0.2282 0.4713
vn -0.8819 0.0000 0.4714
vn -0.8921 0.2390 0.3833
vn -0.9235 0.0000 0.3835
vn 0.2282 -0.8519 0.4713
vn 0.4409 -0.7638 0.4714
vn 0.0000 -0.8819 0.4714
vn 0.0000 -0.9235 0.3835
vn 0.2390 -0.8921 0.3833
vn 0.4617 -0.7998 0.3835
vn -0.2282 -0.8519 0.4713
vn -0.4409 -0.7638 0.4714
vn -0.4617 -0.7998 0.3835
vn -0.2390 -0.8921 0.3833
vn -0.8519 -0.2282 0.4713
vn -0.7638 -0.4409 0.4714
vn -0.8921 -0.2390 0.3833
vn -0.7998 -0.4617 0.3835
vn 0.6236 -0.6236 0.4713
vn 0.7638 -0.4409 0.4714
vn 0.6531 -0.6531 0.3833
vn 0.7998 -0.4617 0.3835
vn -0.6236 -0.6236 0.4713
vn -0.6531 -0.6531 0.3833
vn 0.8519 -0.2282 0.4713
vn 0.8921 -0.2390 0.3833
s 1
f 1/1/1 73/2/2 93/3/3 33/4/4
f 1/1/1 33/4/4 94/5/5 59/6/6
f 1/1/1 59/6/6 107/7/7 37/8/8
f 1/1/1 37/8/8 108/9/9 73/2/2
f 2/10/10 75/11/11 92/12/12 32/13/13
f 2/10/10 32/13/13 93/3/3 73/2/2
f 2/10/10 73/2/2 108/9/9 38/14/14
f 2/10/10 38/14/14 106/15/15 75/11/11
f 3/16/16 76/17/17 91/18/18 31/19/19
f 3/16/16 31/19/19 92/12/12 75/11/11
f 3/16/16 75/11/11 106/15/15 39/20/20
f 3/16/16 39/20/20 105/21/21 76/17/17
f 4/22/22 77/23/23 90/24/24 30/25/25
f 4/22/22 30/25/25 91/18/18 76/17/17
f 4/22/22 76/17/17 105/21/21 40/26/26
f 4/22/22 40/26/26 104/27/27 77/23/23
f 5/28/28 78/29/29 89/30/30 29/31/31
f 5/28/28 29/31/31 90/24/24 77/23/23
f 5/28/28 77/23/23 104/27/27 41/32/32
f 5/28/28 41/32/32 103/33/33 78/29/29
f 6/34/34 79/35/35 88/36/36 28/37/37
f 6/34/34 28/37/37 89/30/30 78/29/29
f 6/34/34 78/29/29 103/33/33 42/38/38
f 6/34/34 42/38/38 102/39/39 79/35/35
f 7/40/40 80/41/41 96/42/42 36/43/43
f 7/40/40 36/43/43 85/44/44 52/45/45
f 7/40/40 52/45/45 100/46/46 43/47/47
f 7/40/40 43/47/47 101/48/48 80/41/41
f 8/49/49 52/50/45 85/51/44 25/52/50
f 8/49/49 25/52/50 86/53/51 51/54/52
f 8/49/49 51/54/52 99/55/53 44/56/54
f 8/49/49 44/56/54 100/57/46 52/50/45
f 9/58/55 83/59/56 87/60/57 27/61/58
f 9/58/55 27/61/58 88/36/36 79/35/35
f 9/58/55 79/35/35 102/39/39 45/62/59
f 9/58/55 45/62/59 98/63/60 83/59/56
f 10/64/61 84/65/62 95/66/63 35/67/64
f 10/64/61 35/67/64 96/42/42 80/41/41
f 10/64/61 80/41/41 101/48/48 46/68/65
f 10/64/61 46/68/65 97/69/66 84/65/62
f 11/70/67 51/54/52 86/53/51 26/71/68
f 11/70/67 26/71/68 87/60/57 83/59/56
f 11/70/67 83/59/56 98/63/60 47/72/69
f 11/70/67 47/72/69 99/55/53 51/54/52
f 12/73/70 59/6/6 94/5/5 34/74/71
f 12/73/70 34/74/71 95/66/63 84/65/62
f 12/73/70 84/65/62 97/69/66 48/75/72
f 12/73/70 48/75/72 107/7/7 59/6/6
f 13/76/73 60/77/74 108/9/9 37/8/8
f 13/76/73 37/8/8 107/7/7 74/78/75
f 13/76/73 74/78/75 118/79/76 69/80/77
f 13/76/73 69/80/77 117/81/78 60/77/74
f 14/82/79 58/83/80 106/15/15 38/14/14
f 14/82/79 38/14/14 108/9/9 60/77/74
f 14/82/79 60/77/74 117/81/78 68/84/81
f 14/82/79 68/84/81 116/85/82 58/83/80
f 15/86/83 57/87/84 105/21/21 39/20/20
f 15/86/83 39/20/20 106/15/15 58/83/80
f 15/86/83 58/83/80 116/85/82 67/88/85
f 15/86/83 67/88/85 115/89/86 57/87/84
f 16/90/87 56/91/88 104/27/27 40/26/26
f 16/90/87 40/26/26 105/21/21 57/87/84
f 16/90/87 57/87/84 115/89/86 66/92/89
f 16/90/87 66/92/89 114/93/90 56/91/88
f 17/94/91 55/95/92 103/33/33 41/32/32
f 17/94/91 41/32/32 104/27/27 56/91/88
f 17/94/91 56/91/88 114/93/90 65/96/93
f 17/94/91 65/96/93 113/97/94 55/95/92
f 18/98/95 54/99/96 102/39/39 42/38/38
f 18/98/95 42/38/38 103/33/33 55/95/92
f 18/98/95 55/95/92 113/97/94 64/100/97
f 18/98/95 64/100/97 112/101/98 54/99/96
f 19/102/99 53/103/100 101/48/48 43/47/47
f 19/102/99 43/47/47 100/46/46 81/104/101
f 19/102/99 81/104/101 109/105/102 72/106/103
f 19/102/99 72/106/103 120/107/104 53/103/100
f 20/108/105 81/109/101 100/57/46 44/56/54
f 20/108/105 44/56/54 99/55/53 82/110/106
f 20/108/105 82/110/106 110/111/107 61/112/108
f 20/108/105 61/112/108 109/113/102 81/109/101
f 21/114/109 50/115/110 98/63/60 45/62/59
f 21/114/109 45/62/59 102/39/39 54/99/96
f 21/114/109 54/99/96 112/101/98 63/116/111
f 21/114/109 63/116/111 111/117/112 50/115/110
f 22/118/113 49/119/114 97/69/66 46/68/65
f 22/118/113 46/68/65 101/48/48 53/103/100
f 22/118/113 53/103/100 120/107/104 71/120/115
f 22/118/113 71/120/115 119/121/116 49/119/114
f 23/122/117 82/110/106 99/55/53 47/72/69
f 23/122/117 47/72/69 98/63/60 50/115/110
f 23/122/117 50/115/110 111/117/112 62/123/118
f 23/122/117 62/123/118 110/111/107 82/110/106
f 24/124/119 74/78/75 107/7/7 48/75/72
f 24/124/119 48/75/72 97/69/66 49/119/114
f 24/124/119 49/119/114 119/121/116 70/125/120
f 24/124/119 70/125/120 118/79/76 74/78/75
