# Blender v2.78 (sub 0) OBJ File: 'OrcTrailMeshBlend.blend'
# www.blender.org
o PlaneShort_Plane.002
v 0.177811 -0.738790 -0.468160
v 0.124878 0.744191 -0.468160
v -0.889807 0.856933 -0.973711
v -1.266978 -0.578260 -0.973712
v 0.647945 0.802448 -0.701174
v 0.922596 -0.655840 -0.701174
v -0.612222 -0.704223 -0.560075
v -0.429967 0.768467 -0.560074
v 0.267954 -0.476805 0.360751
v 0.260892 0.008029 0.550511
v 0.213038 0.490449 0.360751
v -1.826842 -0.157332 -0.442864
v -1.840147 0.348761 -0.321339
v -1.569679 0.776725 -0.442864
v 1.360353 -0.287777 -0.009643
v 1.341351 0.207856 0.148666
v 1.116034 0.649722 -0.009644
v -0.919334 -0.394148 0.214646
v -0.894175 0.095295 0.392000
v -0.730922 0.556165 0.214647
v -0.682503 0.809136 -0.731057
v -0.971802 -0.646316 -0.731057
v -1.431639 -0.266138 -0.057145
v -1.411388 0.230716 0.097132
v -1.174477 0.667919 -0.057144
v -0.224474 -0.736906 -0.473011
v -0.157649 0.745514 -0.473011
v -0.338208 -0.472291 0.353042
v -0.329276 0.012797 0.542147
v -0.268894 0.494037 0.353042
v 0.399156 0.764793 -0.545740
v 0.568351 -0.709456 -0.545740
v 0.853914 -0.406640 0.237433
v 0.830676 0.082112 0.416721
v 0.678909 0.546233 0.237433
v 1.228572 -0.588190 -0.934317
v 0.862833 0.849958 -0.934318
v 1.770693 -0.180839 -0.380244
v 1.786533 0.323874 -0.253402
v 1.526374 0.756660 -0.380244
v 0.161908 0.736844 -0.055595
v -1.192354 0.930797 -0.709498
v 0.836932 0.834357 -0.356986
v -0.556598 0.777524 -0.174481
v -0.881187 0.845530 -0.395638
v -0.204380 0.739063 -0.061868
v 0.516835 0.771370 -0.155939
v 1.160874 0.918416 -0.658544
v 0.229547 -0.727810 -0.055595
v -1.581548 -0.482821 -0.709499
v 1.186573 -0.589559 -0.356986
v -0.789125 -0.670135 -0.174481
v -1.249316 -0.573719 -0.395638
v -0.289763 -0.724663 -0.061868
v 0.732750 -0.678859 -0.155939
v 1.530631 -0.500409 -0.658544
vt 0.5681 0.8333
vt 0.4266 0.8333
vt 0.4266 1.0000
vt 0.5681 1.0000
vt 0.2853 0.8333
vt 0.1439 0.8333
vt 0.1439 1.0000
vt 0.2853 1.0000
vt 0.8558 0.8333
vt 0.7095 0.8333
vt 0.7095 1.0000
vt 0.8558 1.0000
vt 0.8558 0.1667
vt 0.7095 0.1667
vt 0.7095 0.3333
vt 0.8558 0.3333
vt 0.7095 0.5000
vt 0.8558 0.5000
vt 0.7095 0.6667
vt 0.8558 0.6667
vt 0.2853 0.1667
vt 0.1439 0.1667
vt 0.1439 0.3333
vt 0.2853 0.3333
vt 0.1439 0.5000
vt 0.2853 0.5000
vt 0.1439 0.6667
vt 0.2853 0.6667
vt 0.5681 0.1667
vt 0.4266 0.1667
vt 0.4266 0.3333
vt 0.5681 0.3333
vt 0.4266 0.5000
vt 0.5681 0.5000
vt 0.4266 0.6667
vt 0.5681 0.6667
vt 1.0020 0.5000
vt 1.0020 0.6667
vt 1.0020 0.3333
vt 1.0020 0.1667
vt 1.0020 0.8333
vt 1.0020 1.0000
vt -0.0024 0.5000
vt -0.0024 0.6667
vt -0.0024 0.3333
vt -0.0024 0.1667
vt -0.0024 0.8333
vt -0.0024 1.0000
vt 0.1439 0.0000
vt -0.0024 0.0000
vt 0.4266 0.0000
vt 0.2853 0.0000
vt 0.7095 0.0000
vt 0.5681 0.0000
vt 1.0020 0.0000
vt 0.8558 0.0000
vn 0.0087 0.9568 0.2907
vn -0.0069 0.9564 0.2919
vn -0.0397 0.9991 0.0168
vn 0.0501 0.9986 0.0168
vn -0.0249 0.9616 0.2734
vn -0.0411 0.9708 0.2362
vn -0.1959 0.9805 0.0166
vn -0.1262 0.9919 0.0168
vn 0.0447 0.9720 0.2304
vn 0.0270 0.9625 0.2700
vn 0.1366 0.9905 0.0167
vn 0.2066 0.9783 0.0161
vn -0.3824 -0.8915 0.2427
vn -0.2459 -0.9295 0.2749
vn -0.3820 -0.5810 0.7186
vn -0.5906 -0.5066 0.6281
vn -0.3660 0.0620 0.9285
vn -0.5702 0.1468 0.8083
vn -0.1867 0.6747 0.7140
vn -0.2919 0.7290 0.6192
vn 0.2271 -0.9335 0.2776
vn 0.3632 -0.8981 0.2479
vn 0.5624 -0.5197 0.6431
vn 0.3531 -0.5898 0.7262
vn 0.5445 0.1321 0.8283
vn 0.3388 0.0517 0.9394
vn 0.2801 0.7201 0.6348
vn 0.1731 0.6688 0.7230
vn -0.0898 -0.9521 0.2920
vn 0.0711 -0.9535 0.2930
vn 0.1107 -0.6342 0.7652
vn -0.1397 -0.6313 0.7628
vn 0.1072 -0.0015 0.9942
vn -0.1352 0.0021 0.9908
vn 0.0560 0.6361 0.7696
vn -0.0706 0.6383 0.7665
vn -0.6607 0.1819 0.7283
vn -0.3465 0.7499 0.5635
vn -0.6777 -0.4712 0.5645
vn -0.4389 -0.8716 0.2182
vn 0.0485 0.9760 0.2124
vn 0.2327 0.9724 0.0157
vn 0.6368 0.1659 0.7530
vn 0.3361 0.7398 0.5828
vn 0.6509 -0.4856 0.5835
vn 0.4197 -0.8794 0.2247
vn -0.0435 0.9744 0.2205
vn -0.2218 0.9749 0.0164
vn 0.2126 -0.9769 0.0193
vn 0.2466 -0.9690 0.0156
vn 0.0424 -0.9987 0.0274
vn 0.1355 -0.9904 0.0247
vn -0.1466 -0.9889 0.0244
vn -0.0535 -0.9982 0.0272
vn -0.2584 -0.9659 0.0155
vn -0.2241 -0.9744 0.0191
s 1
f 46/1/1 41/2/2 2/3/3 27/4/4
f 47/5/5 43/6/6 5/7/7 31/8/8
f 45/9/9 44/10/10 8/11/11 21/12/12
f 53/13/13 52/14/14 18/15/15 23/16/16
f 23/16/16 18/15/15 19/17/17 24/18/18
f 24/18/18 19/17/17 20/19/19 25/20/20
f 55/21/21 51/22/22 15/23/23 33/24/24
f 33/24/24 15/23/23 16/25/25 34/26/26
f 34/26/26 16/25/25 17/27/27 35/28/28
f 54/29/29 49/30/30 9/31/31 28/32/32
f 28/32/32 9/31/31 10/33/33 29/34/34
f 29/34/34 10/33/33 11/35/35 30/36/36
f 13/37/37 24/18/18 25/20/20 14/38/38
f 12/39/39 23/16/16 24/18/18 13/37/37
f 50/40/40 53/13/13 23/16/16 12/39/39
f 42/41/41 45/9/9 21/12/12 3/42/42
f 19/17/17 29/34/34 30/36/36 20/19/19
f 18/15/15 28/32/32 29/34/34 19/17/17
f 52/14/14 54/29/29 28/32/32 18/15/15
f 44/10/10 46/1/1 27/4/4 8/11/11
f 10/33/33 34/26/26 35/28/28 11/35/35
f 9/31/31 33/24/24 34/26/26 10/33/33
f 49/30/30 55/21/21 33/24/24 9/31/31
f 41/2/2 47/5/5 31/8/8 2/3/3
f 16/25/25 39/43/43 40/44/44 17/27/27
f 15/23/23 38/45/45 39/43/43 16/25/25
f 51/22/22 56/46/46 38/45/45 15/23/23
f 43/6/6 48/47/47 37/48/48 5/7/7
f 17/27/27 40/44/44 48/47/47 43/6/6
f 11/35/35 35/28/28 47/5/5 41/2/2
f 20/19/19 30/36/36 46/1/1 44/10/10
f 14/38/38 25/20/20 45/9/9 42/41/41
f 25/20/20 20/19/19 44/10/10 45/9/9
f 35/28/28 17/27/27 43/6/6 47/5/5
f 30/36/36 11/35/35 41/2/2 46/1/1
f 6/49/49 36/50/50 56/46/46 51/22/22
f 1/51/51 32/52/52 55/21/21 49/30/30
f 7/53/53 26/54/54 54/29/29 52/14/14
f 4/55/55 22/56/56 53/13/13 50/40/40
f 26/54/54 1/51/51 49/30/30 54/29/29
f 32/52/52 6/49/49 51/22/22 55/21/21
f 22/56/56 7/53/53 52/14/14 53/13/13
