# Blender v2.78 (sub 0) OBJ File: 'OrcTrailMeshBlend.blend'
# www.blender.org
o Plane.001
v -1.190689 -0.486630 -1.726177
v 1.120547 -0.505451 -1.925351
v -0.846275 0.798241 -1.726177
v 0.776383 0.779487 -1.925351
v 0.127189 -0.663085 -0.400828
v 0.084732 0.666468 -0.400828
v -0.640521 0.743544 -0.766785
v -0.961468 -0.547389 -0.766785
v 1.090647 -0.513460 -0.940410
v 0.746483 0.771478 -0.940410
v 0.458982 0.705093 -0.564929
v 0.688966 -0.605106 -0.564929
v 1.222001 -0.478277 -1.429093
v 0.877837 0.806661 -1.429093
v -0.465074 -0.637884 -0.468724
v -0.309828 0.683257 -0.468724
v -0.850979 0.799502 -1.218950
v -1.195393 -0.485369 -1.218950
v -0.878163 0.806789 -1.472857
v -1.222577 -0.478082 -1.472857
v -1.110696 -0.508072 -0.979009
v -0.766282 0.776799 -0.979008
v -0.490496 0.710821 -0.591969
v -0.736269 -0.596508 -0.591970
v -0.174238 -0.661305 -0.405478
v -0.116075 0.667654 -0.405478
v 0.280273 0.679952 -0.454984
v 0.420711 -0.642845 -0.454984
v 0.923873 -0.556542 -0.730977
v 0.615475 0.737446 -0.730977
v 0.840617 0.796692 -1.176554
v 1.184781 -0.488246 -1.176554
v 1.200173 -0.484124 -1.683554
v 0.856008 0.800814 -1.683554
v 1.107393 0.873737 -2.090966
v 0.114807 0.673004 -0.020813
v -0.907189 0.820159 -0.517748
v 1.066791 0.862862 -0.753513
v 0.619342 0.743924 -0.243647
v 1.245156 0.910636 -1.417096
v -0.419051 0.703866 -0.113010
v -1.208714 0.900985 -1.131743
v -1.202327 0.899272 -1.820507
v -1.245627 0.910879 -1.476524
v -1.093704 0.870156 -0.805926
v -0.661459 0.754416 -0.280365
v -0.157256 0.675187 -0.027127
v 0.379212 0.697795 -0.094353
v 0.865045 0.808825 -0.469123
v 1.194616 0.897099 -1.074173
v 1.215516 0.902697 -1.762629
v -1.549537 -0.396030 -1.820507
v 1.454351 -0.421634 -2.090966
v 0.172919 -0.666767 -0.020813
v -1.254400 -0.475143 -0.517748
v 1.413749 -0.432509 -0.753513
v 0.932834 -0.559950 -0.243647
v 1.592114 -0.384734 -1.417096
v -0.631163 -0.620284 -0.113010
v -1.555925 -0.394318 -1.131743
v -1.592838 -0.384423 -1.476524
v -1.440915 -0.425147 -0.805926
v -0.996270 -0.544147 -0.280365
v -0.236854 -0.663480 -0.027127
v 0.571157 -0.629428 -0.094353
v 1.212004 -0.486545 -0.469123
v 1.541574 -0.398271 -1.074173
v 1.562474 -0.392673 -1.762629
vt 0.0625 0.8333
vt 0.0000 0.8333
vt 0.0000 1.0000
vt 0.0625 1.0000
vt 0.5615 0.8333
vt 0.5000 0.8333
vt 0.5000 1.0000
vt 0.5615 1.0000
vt 0.8125 0.8333
vt 0.7500 0.8333
vt 0.7500 1.0000
vt 0.8125 1.0000
vt 0.3136 0.8333
vt 0.2500 0.8333
vt 0.2500 1.0000
vt 0.3136 1.0000
vt 0.4386 0.8333
vt 0.3772 0.8333
vt 0.3772 1.0000
vt 0.4386 1.0000
vt 0.1875 0.8333
vt 0.1250 0.8333
vt 0.1250 1.0000
vt 0.1875 1.0000
vt 0.6865 0.8333
vt 0.6229 0.8333
vt 0.6229 1.0000
vt 0.6865 1.0000
vt 0.9375 0.8333
vt 0.8750 0.8333
vt 0.8750 1.0000
vt 0.9375 1.0000
vt 1.0000 0.8333
vt 1.0000 1.0000
vt 0.1250 0.0000
vt 0.0625 0.0000
vt 0.0625 0.1667
vt 0.1250 0.1667
vt 0.2500 0.0000
vt 0.1875 0.0000
vt 0.1875 0.1667
vt 0.2500 0.1667
vt 0.3772 0.0000
vt 0.3136 0.0000
vt 0.3136 0.1667
vt 0.3772 0.1667
vt 0.5000 0.0000
vt 0.4386 0.0000
vt 0.4386 0.1667
vt 0.5000 0.1667
vt 0.6229 0.0000
vt 0.5615 0.0000
vt 0.5615 0.1667
vt 0.6229 0.1667
vt 0.7500 0.0000
vt 0.6865 0.0000
vt 0.6865 0.1667
vt 0.7500 0.1667
vt 0.8750 0.0000
vt 0.8125 0.0000
vt 0.8125 0.1667
vt 0.8750 0.1667
vt 1.0000 0.0000
vt 0.9375 0.0000
vt 0.9375 0.1667
vt 1.0000 0.1667
vt 0.0000 0.0000
vt 0.0000 0.1667
vn -0.2720 0.9622 0.0029
vn -0.2717 0.9623 0.0046
vn 0.0530 0.9984 -0.0178
vn -0.0387 0.9991 -0.0180
vn -0.0414 0.9990 -0.0180
vn 0.0566 0.9982 -0.0178
vn 0.2708 0.9626 -0.0065
vn 0.2607 0.9654 -0.0095
vn 0.2614 0.9652 -0.0094
vn -0.2562 0.9666 -0.0099
vn -0.2698 0.9629 -0.0071
vn -0.2575 0.9662 -0.0098
vn -0.1280 0.9916 -0.0162
vn -0.2072 0.9782 -0.0130
vn -0.2150 0.9765 -0.0126
vn -0.1358 0.9906 -0.0160
vn -0.2718 0.9623 -0.0038
vn -0.2723 0.9622 -0.0004
vn 0.2184 0.9758 -0.0127
vn 0.1421 0.9897 -0.0159
vn 0.1507 0.9884 -0.0156
vn 0.2253 0.9742 -0.0123
vn 0.2725 0.9621 0.0001
vn 0.2722 0.9622 -0.0032
vn 0.2725 0.9621 0.0018
vn 0.2450 -0.9695 -0.0004
vn 0.2453 -0.9694 0.0029
vn 0.2455 -0.9694 -0.0066
vn 0.2455 -0.9694 -0.0038
vn 0.1906 -0.9816 -0.0104
vn 0.2334 -0.9723 -0.0094
vn 0.2344 -0.9721 -0.0093
vn 0.1962 -0.9805 -0.0105
vn 0.0363 -0.9993 -0.0081
vn 0.1199 -0.9927 -0.0092
vn 0.1258 -0.9920 -0.0093
vn 0.0383 -0.9992 -0.0082
vn -0.1332 -0.9910 -0.0092
vn -0.0497 -0.9987 -0.0082
vn -0.0525 -0.9986 -0.0083
vn -0.1395 -0.9901 -0.0094
vn -0.2375 -0.9713 -0.0088
vn -0.2007 -0.9796 -0.0099
vn -0.2058 -0.9785 -0.0099
vn -0.2381 -0.9712 -0.0087
vn -0.2456 -0.9694 -0.0032
vn -0.2462 -0.9692 -0.0063
vn -0.2462 -0.9692 -0.0062
vn -0.2452 -0.9695 0.0018
vn -0.2452 -0.9695 0.0001
vn 0.2457 -0.9693 0.0046
s 1
f 51/1/1 35/2/2 4/3/2 34/4/1
f 47/5/3 36/6/4 6/7/5 26/8/6
f 45/9/7 37/10/8 7/11/9 22/12/7
f 49/13/10 38/14/11 10/15/11 30/16/12
f 48/17/13 39/18/14 11/19/15 27/20/16
f 50/21/17 40/22/18 14/23/18 31/24/17
f 46/25/19 41/26/20 16/27/21 23/28/22
f 44/29/23 42/30/24 17/31/24 19/32/23
f 43/33/25 44/29/23 19/32/23 3/34/25
f 42/30/24 45/9/7 22/12/7 17/31/24
f 37/10/8 46/25/19 23/28/22 7/11/9
f 41/26/20 47/5/3 26/8/6 16/27/21
f 36/6/4 48/17/13 27/20/16 6/7/5
f 39/18/14 49/13/10 30/16/12 11/19/15
f 38/14/11 50/21/17 31/24/17 10/15/11
f 40/22/18 51/1/1 34/4/1 14/23/18
s 2
f 13/35/26 33/36/27 68/37/27 58/38/26
f 9/39/28 32/40/29 67/41/29 56/42/28
f 12/43/30 29/44/31 66/45/32 57/46/33
f 5/47/34 28/48/35 65/49/36 54/50/37
f 15/51/38 25/52/39 64/53/40 59/54/41
f 8/55/42 24/56/43 63/57/44 55/58/45
f 18/59/46 21/60/47 62/61/48 60/62/46
f 1/63/49 20/64/50 61/65/50 52/66/49
f 33/36/27 2/67/51 53/68/51 68/37/27
f 25/52/39 5/47/34 54/50/37 64/53/40
f 21/60/47 8/55/42 55/58/45 62/61/48
f 29/44/31 9/39/28 56/42/28 66/45/32
f 28/48/35 12/43/30 57/46/33 65/49/36
f 32/40/29 13/35/26 58/38/26 67/41/29
f 24/56/43 15/51/38 59/54/41 63/57/44
f 20/64/50 18/59/46 60/62/46 61/65/50
o Plane
v -1.118512 -0.624555 -1.710250
v 1.041123 -0.640391 -1.897388
v -0.810377 0.827027 -1.710250
v 0.754307 0.815553 -1.897388
v 0.115472 -0.740725 -0.464992
v 0.083661 0.742859 -0.464992
v -0.635821 0.794105 -0.808834
v -0.877583 -0.669994 -0.808834
v 1.008008 -0.646806 -0.971967
v 0.730315 0.810905 -0.971967
v 0.454394 0.768506 -0.619176
v 0.627172 -0.705327 -0.619176
v 1.153168 -0.617079 -1.431119
v 0.835485 0.832443 -1.431119
v -0.422720 -0.725351 -0.528785
v -0.306266 0.753999 -0.528785
v -0.814138 0.827827 -1.233674
v -1.123702 -0.623450 -1.233674
v -1.620910 0.772028 -1.916175
v -1.924965 0.352024 -1.963316
v -1.871748 -0.163747 -1.916175
v 1.751180 -0.196154 -2.258929
v 1.791973 0.316252 -2.341695
v 1.500525 0.739670 -2.258929
v 0.201345 -0.480452 0.364589
v 0.201268 0.004363 0.554502
v 0.163313 0.487612 0.364589
v -1.497718 -0.264007 -0.265179
v -1.512059 0.241344 -0.140723
v -1.246880 0.671768 -0.265179
v 1.699725 -0.209936 -0.563966
v 1.735169 0.301038 -0.470564
v 1.449069 0.725888 -0.563966
v 1.087935 -0.367694 0.082191
v 1.085767 0.128692 0.242752
v 0.882437 0.579072 0.082191
v 1.925769 -0.149392 -1.404930
v 1.984708 0.367875 -1.398935
v 1.675113 0.786432 -1.404930
v -0.735432 -0.431406 0.247748
v -0.734638 0.058467 0.425516
v -0.596517 0.527394 0.247748
v -1.879843 -0.161577 -1.043299
v -1.933901 0.354420 -0.999717
v -1.629005 0.774198 -1.043299
v -0.835854 0.832524 -1.472238
v -1.153676 -0.616967 -1.472238
v -1.926622 -0.149038 -1.480242
v -1.985543 0.368263 -1.482075
v -1.675784 0.786737 -1.480242
v -1.030083 -0.642554 -1.008233
v -0.746310 0.813987 -1.008233
v -1.734090 -0.200647 -0.630389
v -1.772999 0.311290 -0.543891
v -1.483252 0.735128 -0.630389
v -0.485786 0.772315 -0.644582
v -0.670499 -0.700070 -0.644583
v -1.162198 -0.350998 0.035658
v -1.159603 0.147086 0.191382
v -0.942672 0.592614 0.035658
v -0.158200 -0.739639 -0.469360
v -0.114618 0.743646 -0.469360
v -0.275804 -0.476985 0.356587
v -0.275685 0.008189 0.545668
v -0.223708 0.490425 0.356587
v 0.276989 0.751805 -0.515875
v 0.382310 -0.728379 -0.515875
v 0.665422 -0.441057 0.271392
v 0.664795 0.047823 0.451618
v 0.539731 0.519566 0.271392
v 0.842909 -0.675604 -0.775189
v 0.610698 0.790041 -0.775189
v 1.444052 -0.278417 -0.203557
v 1.452923 0.225439 -0.072695
v 1.193396 0.657407 -0.203557
v 0.805746 0.826046 -1.193840
v 1.112120 -0.625907 -1.193840
v 1.861718 -0.166547 -0.970340
v 1.914000 0.348936 -0.919176
v 1.611063 0.769277 -0.970340
v 1.129103 -0.622295 -1.670202
v 0.818050 0.828663 -1.670202
v 1.888205 -0.159453 -1.842826
v 1.943240 0.356768 -1.882344
v 1.637550 0.776371 -1.842826
v 1.071698 0.882279 -2.077334
v 0.118546 0.734904 -0.052093
v -0.896996 0.837347 -0.538246
v 1.031977 0.871640 -0.768897
v 0.642458 0.786229 -0.270092
v 1.206473 0.918378 -1.418084
v -0.433561 0.757210 -0.142290
v -1.170826 0.908863 -1.138921
v -1.164577 0.907188 -1.812743
v -1.206938 0.918543 -1.476222
v -1.058311 0.878703 -0.820173
v -0.686617 0.793843 -0.306014
v -0.162400 0.736480 -0.058270
v 0.392188 0.752818 -0.124037
v 0.861856 0.829239 -0.490677
v 1.157029 0.905135 -1.082600
v 1.177476 0.910611 -1.756120
v -1.544199 -0.509030 -1.812743
v 1.451045 -0.534012 -2.077334
v 0.162983 -0.730637 -0.052093
v -1.233233 -0.589794 -0.538247
v 1.411323 -0.544652 -0.768897
v 0.883282 -0.660073 -0.270092
v 1.585819 -0.497914 -1.418084
v -0.596081 -0.699969 -0.142290
v -1.550448 -0.507355 -1.138921
v -1.586560 -0.497675 -1.476222
v -1.437933 -0.537515 -0.820173
v -0.943994 -0.649605 -0.306014
v -0.223276 -0.728471 -0.058270
v 0.539199 -0.706008 -0.124037
v 1.184921 -0.600940 -0.490677
v 1.536375 -0.511157 -1.082600
v 1.556822 -0.505681 -1.756120
vt 0.0625 0.8333
vt 0.0000 0.8333
vt 0.0000 1.0000
vt 0.0625 1.0000
vt 0.5615 0.8333
vt 0.5000 0.8333
vt 0.5000 1.0000
vt 0.5615 1.0000
vt 0.8125 0.8333
vt 0.7500 0.8333
vt 0.7500 1.0000
vt 0.8125 1.0000
vt 0.3136 0.8333
vt 0.2500 0.8333
vt 0.2500 1.0000
vt 0.3136 1.0000
vt 0.4386 0.8333
vt 0.3772 0.8333
vt 0.3772 1.0000
vt 0.4386 1.0000
vt 0.1875 0.8333
vt 0.1250 0.8333
vt 0.1250 1.0000
vt 0.1875 1.0000
vt 0.6865 0.8333
vt 0.6229 0.8333
vt 0.6229 1.0000
vt 0.6865 1.0000
vt 0.9375 0.8333
vt 0.8750 0.8333
vt 0.8750 1.0000
vt 0.9375 1.0000
vt 0.9375 0.1667
vt 0.8750 0.1667
vt 0.8750 0.3333
vt 0.9375 0.3333
vt 0.8750 0.5000
vt 0.9375 0.5000
vt 0.8750 0.6667
vt 0.9375 0.6667
vt 0.6865 0.1667
vt 0.6229 0.1667
vt 0.6229 0.3333
vt 0.6865 0.3333
vt 0.6229 0.5000
vt 0.6865 0.5000
vt 0.6229 0.6667
vt 0.6865 0.6667
vt 0.1875 0.1667
vt 0.1250 0.1667
vt 0.1250 0.3333
vt 0.1875 0.3333
vt 0.1250 0.5000
vt 0.1875 0.5000
vt 0.1250 0.6667
vt 0.1875 0.6667
vt 0.4386 0.1667
vt 0.3772 0.1667
vt 0.3772 0.3333
vt 0.4386 0.3333
vt 0.3772 0.5000
vt 0.4386 0.5000
vt 0.3772 0.6667
vt 0.4386 0.6667
vt 0.3136 0.1667
vt 0.2500 0.1667
vt 0.2500 0.3333
vt 0.3136 0.3333
vt 0.2500 0.5000
vt 0.3136 0.5000
vt 0.2500 0.6667
vt 0.3136 0.6667
vt 0.8125 0.1667
vt 0.7500 0.1667
vt 0.7500 0.3333
vt 0.8125 0.3333
vt 0.7500 0.5000
vt 0.8125 0.5000
vt 0.7500 0.6667
vt 0.8125 0.6667
vt 0.5615 0.1667
vt 0.5000 0.1667
vt 0.5000 0.3333
vt 0.5615 0.3333
vt 0.5000 0.5000
vt 0.5615 0.5000
vt 0.5000 0.6667
vt 0.5615 0.6667
vt 0.0625 0.1667
vt 0.0000 0.1667
vt 0.0000 0.3333
vt 0.0625 0.3333
vt 0.0000 0.5000
vt 0.0625 0.5000
vt 0.0000 0.6667
vt 0.0625 0.6667
vt 1.0000 0.5000
vt 1.0000 0.6667
vt 1.0000 0.3333
vt 1.0000 0.1667
vt 1.0000 0.8333
vt 1.0000 1.0000
vt 0.1250 0.0000
vt 0.0625 0.0000
vt 0.2500 0.0000
vt 0.1875 0.0000
vt 0.3772 0.0000
vt 0.3136 0.0000
vt 0.5000 0.0000
vt 0.4386 0.0000
vt 0.6229 0.0000
vt 0.5615 0.0000
vt 0.7500 0.0000
vt 0.6865 0.0000
vt 0.8750 0.0000
vt 0.8125 0.0000
vt 1.0000 0.0000
vt 0.9375 0.0000
vt 0.0000 0.0000
vn 0.0378 0.9974 -0.0603
vn 0.0376 0.9946 -0.0964
vn -0.2170 0.9761 -0.0067
vn -0.2207 0.9753 -0.0040
vn -0.0064 0.9568 0.2908
vn 0.0047 0.9563 0.2922
vn -0.0246 0.9995 0.0184
vn 0.0337 0.9992 0.0184
vn -0.0227 0.9914 0.1288
vn -0.0195 0.9824 0.1859
vn 0.1800 0.9836 0.0153
vn 0.2067 0.9783 0.0105
vn 0.0205 0.9804 0.1957
vn 0.0204 0.9901 0.1388
vn -0.2029 0.9791 0.0115
vn -0.1734 0.9847 0.0157
vn 0.0147 0.9611 0.2757
vn 0.0200 0.9698 0.2431
vn -0.1314 0.9911 0.0176
vn -0.0809 0.9966 0.0183
vn 0.0349 0.9963 0.0783
vn 0.0421 0.9991 0.0091
vn -0.2236 0.9746 0.0005
vn -0.2185 0.9758 0.0056
vn -0.0205 0.9715 0.2359
vn -0.0163 0.9623 0.2716
vn 0.0898 0.9958 0.0182
vn 0.1397 0.9900 0.0173
vn -0.0421 0.9991 -0.0028
vn -0.0368 0.9971 0.0666
vn 0.2201 0.9755 0.0045
vn 0.2238 0.9746 -0.0002
vn -0.5239 -0.8518 -0.0028
vn -0.5146 -0.8548 0.0675
vn -0.8903 -0.4200 0.1762
vn -0.9099 -0.4147 -0.0074
vn -0.9404 0.2521 0.2283
vn -0.9658 0.2589 -0.0096
vn -0.5608 0.8090 0.1762
vn -0.5805 0.8142 -0.0074
vn -0.3172 -0.9171 0.2414
vn -0.2007 -0.9406 0.2737
vn -0.3491 -0.5990 0.7206
vn -0.5519 -0.5389 0.6364
vn -0.3627 0.0474 0.9307
vn -0.5652 0.1223 0.8158
vn -0.2147 0.6656 0.7147
vn -0.3267 0.7117 0.6219
vn 0.5108 -0.8560 0.0791
vn 0.5236 -0.8519 0.0093
vn 0.9095 -0.4150 0.0242
vn 0.8826 -0.4222 0.2068
vn 0.9655 0.2586 0.0314
vn 0.9306 0.2492 0.2681
vn 0.5803 0.8140 0.0242
vn 0.5534 0.8068 0.2068
vn 0.1805 -0.9437 0.2772
vn 0.2976 -0.9219 0.2480
vn 0.5176 -0.5512 0.6544
vn 0.3142 -0.6068 0.7301
vn 0.5315 0.1079 0.8401
vn 0.3270 0.0373 0.9443
vn 0.3087 0.7028 0.6409
vn 0.1938 0.6597 0.7261
vn 0.3990 -0.8937 0.2050
vn 0.4755 -0.8670 0.1486
vn 0.8108 -0.4445 0.3808
vn 0.6895 -0.4867 0.5364
vn 0.8419 0.2255 0.4902
vn 0.7052 0.1809 0.6856
vn 0.4902 0.7865 0.3757
vn 0.4039 0.7517 0.5214
vn -0.4837 -0.8644 0.1368
vn -0.4154 -0.8883 0.1955
vn -0.7154 -0.4775 0.5100
vn -0.8265 -0.4395 0.3518
vn -0.7331 0.1909 0.6528
vn -0.8610 0.2308 0.4532
vn -0.4202 0.7590 0.4972
vn -0.5034 0.7911 0.3475
vn -0.0747 -0.9540 0.2902
vn 0.0545 -0.9550 0.2914
vn 0.0949 -0.6360 0.7658
vn -0.1301 -0.6335 0.7627
vn 0.0994 -0.0019 0.9950
vn -0.1362 0.0015 0.9907
vn 0.0594 0.6358 0.7696
vn -0.0813 0.6379 0.7658
vn 0.5162 -0.8543 -0.0612
vn 0.5034 -0.8588 -0.0947
vn 0.8713 -0.4223 -0.2497
vn 0.8937 -0.4192 -0.1597
vn 0.9143 0.2449 -0.3227
vn 0.9450 0.2531 -0.2070
vn 0.5436 0.8014 -0.2497
vn 0.5645 0.8098 -0.1597
vn -0.9578 0.2567 -0.1292
vn -0.5771 0.8105 -0.1000
vn -0.9051 -0.4132 -0.1000
vn -0.5215 -0.8524 -0.0384
vn -0.0441 0.9983 -0.0380
vn 0.2236 0.9746 -0.0022
vn 0.2634 -0.9647 0.0009
vn 0.2593 -0.9658 -0.0054
vn 0.2365 -0.9716 0.0096
vn 0.2563 -0.9666 0.0067
vn 0.1506 -0.9884 0.0185
vn 0.2006 -0.9796 0.0133
vn 0.0278 -0.9993 0.0251
vn 0.0919 -0.9955 0.0228
vn -0.1021 -0.9945 0.0222
vn -0.0381 -0.9990 0.0249
vn -0.2082 -0.9780 0.0125
vn -0.1603 -0.9869 0.0177
vn -0.2584 -0.9660 0.0059
vn -0.2411 -0.9704 0.0091
vn -0.2634 -0.9647 -0.0037
vn -0.2636 -0.9646 -0.0002
vn 0.2548 -0.9669 -0.0081
s 1
f 170/69/52 154/70/53 72/71/54 150/72/55
f 166/73/56 155/74/57 74/75/58 130/76/59
f 164/77/60 156/78/61 75/79/62 120/80/63
f 168/81/64 157/82/65 78/83/66 140/84/67
f 167/85/68 158/86/69 79/87/70 134/88/71
f 169/89/72 159/90/73 82/91/74 144/92/75
f 165/93/76 160/94/77 84/95/78 124/96/79
f 163/97/80 161/98/81 85/99/82 114/100/83
f 180/101/84 179/102/85 111/103/86 116/104/87
f 116/104/87 111/103/86 112/105/88 117/106/89
f 117/106/89 112/105/88 113/107/90 118/108/91
f 182/109/92 178/110/93 108/111/94 126/112/95
f 126/112/95 108/111/94 109/113/96 127/114/97
f 127/114/97 109/113/96 110/115/98 128/116/99
f 186/117/100 177/118/101 105/119/102 146/120/103
f 146/120/103 105/119/102 106/121/104 147/122/105
f 147/122/105 106/121/104 107/123/106 148/124/107
f 184/125/108 176/126/109 102/127/110 136/128/111
f 136/128/111 102/127/110 103/129/112 137/130/113
f 137/130/113 103/129/112 104/131/114 138/132/115
f 185/133/116 175/134/117 99/135/118 141/136/119
f 141/136/119 99/135/118 100/137/120 142/138/121
f 142/138/121 100/137/120 101/139/122 143/140/123
f 181/141/124 174/142/125 96/143/126 121/144/127
f 121/144/127 96/143/126 97/145/128 122/146/129
f 122/146/129 97/145/128 98/147/130 123/148/131
f 183/149/132 173/150/133 93/151/134 131/152/135
f 131/152/135 93/151/134 94/153/136 132/154/137
f 132/154/137 94/153/136 95/155/138 133/156/139
f 187/157/140 172/158/141 90/159/142 151/160/143
f 151/160/143 90/159/142 91/161/144 152/162/145
f 152/162/145 91/161/144 92/163/146 153/164/147
f 88/165/148 117/106/89 118/108/91 87/166/149
f 89/167/150 116/104/87 117/106/89 88/165/148
f 171/168/151 180/101/84 116/104/87 89/167/150
f 162/169/152 163/97/80 114/100/83 71/170/153
f 112/105/88 122/146/129 123/148/131 113/107/90
f 111/103/86 121/144/127 122/146/129 112/105/88
f 179/102/85 181/141/124 121/144/127 111/103/86
f 161/98/81 164/77/60 120/80/63 85/99/82
f 97/145/128 127/114/97 128/116/99 98/147/130
f 96/143/126 126/112/95 127/114/97 97/145/128
f 174/142/125 182/109/92 126/112/95 96/143/126
f 156/78/61 165/93/76 124/96/79 75/79/62
f 109/113/96 132/154/137 133/156/139 110/115/98
f 108/111/94 131/152/135 132/154/137 109/113/96
f 178/110/93 183/149/132 131/152/135 108/111/94
f 160/94/77 166/73/56 130/76/59 84/95/78
f 94/153/136 137/130/113 138/132/115 95/155/138
f 93/151/134 136/128/111 137/130/113 94/153/136
f 173/150/133 184/125/108 136/128/111 93/151/134
f 155/74/57 167/85/68 134/88/71 74/75/58
f 103/129/112 142/138/121 143/140/123 104/131/114
f 102/127/110 141/136/119 142/138/121 103/129/112
f 176/126/109 185/133/116 141/136/119 102/127/110
f 158/86/69 168/81/64 140/84/67 79/87/70
f 100/137/120 147/122/105 148/124/107 101/139/122
f 99/135/118 146/120/103 147/122/105 100/137/120
f 175/134/117 186/117/100 146/120/103 99/135/118
f 157/82/65 169/89/72 144/92/75 78/83/66
f 106/121/104 152/162/145 153/164/147 107/123/106
f 105/119/102 151/160/143 152/162/145 106/121/104
f 177/118/101 187/157/140 151/160/143 105/119/102
f 159/90/73 170/69/52 150/72/55 82/91/74
f 107/123/106 153/164/147 170/69/52 159/90/73
f 101/139/122 148/124/107 169/89/72 157/82/65
f 104/131/114 143/140/123 168/81/64 158/86/69
f 95/155/138 138/132/115 167/85/68 155/74/57
f 110/115/98 133/156/139 166/73/56 160/94/77
f 98/147/130 128/116/99 165/93/76 156/78/61
f 113/107/90 123/148/131 164/77/60 161/98/81
f 87/166/149 118/108/91 163/97/80 162/169/152
f 118/108/91 113/107/90 161/98/81 163/97/80
f 128/116/99 110/115/98 160/94/77 165/93/76
f 148/124/107 107/123/106 159/90/73 169/89/72
f 138/132/115 104/131/114 158/86/69 167/85/68
f 143/140/123 101/139/122 157/82/65 168/81/64
f 123/148/131 98/147/130 156/78/61 164/77/60
f 133/156/139 95/155/138 155/74/57 166/73/56
f 153/164/147 92/163/146 154/70/53 170/69/52
f 81/171/154 149/172/155 187/157/140 177/118/101
f 77/173/156 145/174/157 186/117/100 175/134/117
f 80/175/158 139/176/159 185/133/116 176/126/109
f 73/177/160 135/178/161 184/125/108 173/150/133
f 83/179/162 129/180/163 183/149/132 178/110/93
f 76/181/164 125/182/165 182/109/92 174/142/125
f 86/183/166 119/184/167 181/141/124 179/102/85
f 69/185/168 115/186/169 180/101/84 171/168/151
f 149/172/155 70/187/170 172/158/141 187/157/140
f 129/180/163 73/177/160 173/150/133 183/149/132
f 119/184/167 76/181/164 174/142/125 181/141/124
f 139/176/159 77/173/156 175/134/117 185/133/116
f 135/178/161 80/175/158 176/126/109 184/125/108
f 145/174/157 81/171/154 177/118/101 186/117/100
f 125/182/165 83/179/162 178/110/93 182/109/92
f 115/186/169 86/183/166 179/102/85 180/101/84
